<svg xmlns="http://www.w3.org/2000/svg" viewBox="0 0 1600 700">
  <defs>
    <linearGradient id="g" x1="0" x2="1"><stop offset="0" stop-color="#f6f3ee"/><stop offset="1" stop-color="#28231e"/></linearGradient>
    <radialGradient id="spark" cx="72%" cy="50%" r="35%"><stop offset="0" stop-color="#ff8a20"/><stop offset=".25" stop-color="#fbbf24"/><stop offset="1" stop-color="#111" stop-opacity="0"/></radialGradient>
  </defs>
  <rect width="1600" height="700" fill="url(#g)"/>
  <rect x="930" y="0" width="170" height="330" rx="16" fill="#2b2b2b"/>
  <rect x="965" y="250" width="100" height="120" rx="10" fill="#56514b"/>
  <rect x="1005" y="350" width="24" height="80" fill="#202020"/>
  <rect x="0" y="430" width="1600" height="270" fill="#504238"/>
  <rect x="180" y="455" width="1050" height="28" fill="#716357" opacity=".75"/>
  <circle cx="1018" cy="430" r="210" fill="url(#spark)" opacity=".9"/>
  <g stroke="#ff7a18" stroke-width="5" stroke-linecap="round" opacity=".95">
    <path d="M1020 430 L1280 310"/><path d="M1020 430 L1395 405"/><path d="M1020 430 L1340 540"/><path d="M1020 430 L1160 230"/>
    <path d="M1020 430 L1450 260"/><path d="M1020 430 L1210 610"/><path d="M1020 430 L1540 470"/>
  </g>
  <g fill="#ffb24a" opacity=".9">
    <circle cx="1210" cy="310" r="6"/><circle cx="1390" cy="398" r="5"/><circle cx="1335" cy="545" r="4"/><circle cx="1180" cy="250" r="5"/><circle cx="1475" cy="255" r="4"/><circle cx="1240" cy="608" r="5"/>
  </g>
</svg>
